<svg data-v-423bf9ae="" xmlns="http://www.w3.org/2000/svg" viewBox="0 0 328 90" class="iconLeft"><!----><!----><!----><g data-v-423bf9ae="" id="9d019576-7d14-413a-a199-299858b1298e" fill="#CAC5BD" transform="matrix(6.4724922556394615,0,0,6.4724922556394615,102.6860794697181,0.6957904376193298)"><path d="M7.83 3.22L7.83 2.21L1.13 2.21L1.13 11.48L2.18 11.48L2.18 7.46L7.21 7.46L7.21 6.44L2.18 6.44L2.18 3.22ZM16.11 3.22L16.11 2.21L9.30 2.21L9.30 11.48L16.11 11.48L16.11 10.47L10.35 10.47L10.35 7.35L15.50 7.35L15.50 6.33L10.35 6.33L10.35 3.22ZM21.71 2.21L17.81 2.21L17.81 11.48L21.71 11.48C23.93 11.48 25.97 9.74 25.97 6.85C25.97 3.95 23.93 2.21 21.71 2.21ZM21.67 10.49L18.86 10.49L18.86 3.21L21.67 3.21C23.65 3.21 24.92 4.86 24.92 6.85C24.92 8.83 23.65 10.49 21.67 10.49ZM34.52 2.21L33.19 2.21L30.44 5.85L27.69 2.21L26.36 2.21L29.81 6.69L26.11 11.48L27.44 11.48L30.44 7.50L33.45 11.48L34.78 11.48L31.08 6.69Z"></path></g><!----><g data-v-423bf9ae="" id="1d6bb9a1-8387-4c8b-8706-662354d7f7e7" transform="matrix(2.8125,0,0,2.8125,0,0)" stroke="none" fill="#CAC5BD"><path d="M9.382 8.675h13.943v13.943L32 31.293V0H.707zM22.618 23.325H8.675V9.382L0 .707V32h31.293z"></path></g><!----></svg>